<svg width="455" height="190" fill="none" xmlns="http://www.w3.org/2000/svg"><path d="M0 105.752c1.234-1.491 2.381-3.057 3.7-4.462 5.428-5.825 10.738-11.767 16.38-17.377 9.354-9.29 19.426-17.763 30.035-25.615a297.563 297.563 0 0 1 33.971-21.733c11.714-6.414 23.782-12.089 36.289-16.744 7.455-2.768 14.974-5.45 22.612-7.616 8.881-2.51 17.892-4.591 26.924-6.533 6.243-1.34 12.582-2.327 18.932-3.089A391.065 391.065 0 0 1 212.324.481c6.919-.408 13.87-.515 20.81-.472 5.985.043 11.981.354 17.956.772 4.731.322 9.45.88 14.149 1.502 6.339.847 12.689 1.673 18.964 2.875a359.22 359.22 0 0 1 22.044 4.923c6.135 1.577 12.217 3.454 18.203 5.535a467.56 467.56 0 0 1 21.99 8.292c9.021 3.658 17.709 8.023 26.259 12.69a291.621 291.621 0 0 1 39.667 26.065 287.835 287.835 0 0 1 22.086 19.126c6.801 6.511 13.258 13.355 19.415 20.477.44.504.783.88.086 1.47-.558.472-.847.257-1.255-.193-7.616-8.41-15.736-16.294-24.296-23.75-10.802-9.406-22.236-17.966-34.272-25.743a296.241 296.241 0 0 0-26.387-15.178c-9.15-4.666-18.547-8.818-28.136-12.53-10.18-3.936-20.52-7.368-31.075-10.136-7.488-1.963-15.061-3.647-22.655-5.16-5.76-1.147-11.606-1.855-17.431-2.67a285.663 285.663 0 0 0-12.454-1.48c-3.153-.301-6.318-.483-9.482-.57-9.032-.224-18.075-.503-27.117-.471-5.353.053-10.738.59-16.112.976-4.001.29-8.002.633-11.992 1.073-3.304.375-6.586.869-9.869 1.416-5.041.836-10.083 1.694-15.092 2.681-4.173.816-8.356 1.674-12.464 2.79-7.477 2.026-14.964 4.054-22.312 6.478-7.348 2.424-14.599 5.181-21.775 8.067-11.735 4.72-23.009 10.404-33.972 16.69C63.641 53 52.035 60.808 40.944 69.4 29.219 78.496 18.3 88.472 8.045 99.188c-1.598 1.662-3.068 3.454-4.709 5.073-.826.826-1.63 1.888-3.003 1.835a9.893 9.893 0 0 0-.333-.344zM281.693 157.659v-52.647c.387-.043.708-.096 1.041-.096 4.848 0 9.686-.065 14.535.032 4.73.086 9.364.793 13.644 2.939 6.425 3.218 10.201 8.474 11.638 15.457 1.255 6.125 1.266 12.239-.557 18.235-2.435 8.035-7.938 12.894-16.005 15.018-3.346.879-6.725 1.115-10.158 1.115-4.291 0-8.57.011-12.861.011-.386-.011-.762-.043-1.277-.064zm5.911-5.149c5.503-.354 10.866-.365 16.122-1.148 5.117-.772 8.967-3.819 11.166-8.646 2.457-5.395 2.682-11.08 1.727-16.787-1.684-9.944-8.077-14.052-16.379-15.082-3.926-.493-7.949-.246-11.928-.321-.236 0-.483.075-.708.118v41.866z" fill="#065a99"/><path d="M215.102 105.163c7.702 0 15.296-.322 22.859.118 4.709.268 9.053 2.349 11.209 7.004 2.027 4.345 2.253 8.828-.483 13.076-1.416 2.199-3.54 3.529-5.974 4.645.203.172.321.332.482.397 3.658 1.662 5.203 4.805 5.718 8.517.622 4.516.954 9.064 1.619 13.569.247 1.727 1.041 3.368 1.641 5.213H247.4c-1.995 0-2.124.022-2.467-1.856-.547-2.971-.912-5.974-1.341-8.967-.44-3.036-.761-6.093-1.319-9.096-.472-2.575-2.307-4.248-4.881-4.345-5.224-.193-10.448-.182-15.672-.257-.986-.011-.793.686-.793 1.255-.011 6.082 0 12.164 0 18.257 0 1.373.032 2.746-.033 4.108-.01.311-.375.848-.6.858-1.706.075-3.401.043-5.192.043v-52.539zm5.814 22.526c5.395-.15 10.598.032 15.725-.536 4.055-.451 7.005-1.996 7.638-7.059.3-2.424-.429-6.5-3.465-8.109-2.103-1.116-4.387-1.405-6.683-1.448-3.979-.075-7.97.021-11.96-.043-1.073-.021-1.287.365-1.277 1.341.054 3.722.022 7.455.022 11.177v4.677zM112.319 131.282c0 5.803-.944 11.381-3.926 16.465-3.529 6.04-8.903 9.204-15.747 10.094-4.73.612-9.3.043-13.601-2.016-5.921-2.843-9.515-7.713-11.156-13.934-.837-3.143-1.405-6.447-1.48-9.686-.14-6.2.793-12.261 4.162-17.667 3.228-5.192 7.884-8.324 13.944-9.429 5.417-.987 10.652-.536 15.586 1.931 5.825 2.917 9.247 7.862 10.856 14.009.869 3.314.804 5.888 1.362 9.289v.944zm-39.678.611c-.097 3.39.547 7.327 2.21 11.049 3.454 7.702 9.514 10.308 16.851 9.472 6.425-.73 10.491-4.731 12.69-10.684 2.145-5.814 2.328-11.778.944-17.753-.966-4.183-2.8-7.948-6.297-10.705-3.121-2.456-6.693-3.154-10.576-3.036-5.127.161-9.096 2.328-11.95 6.533-2.95 4.344-3.904 9.268-3.872 15.124zM143.566 104.959h5.749v22.472h26.796v-22.429h5.824v52.582h-5.771v-1.491c0-7.198-.021-14.406.022-21.604.01-1.051-.258-1.373-1.352-1.362-7.97.054-15.95.021-23.931.021h-1.534v24.447h-5.814c.011-17.528.011-35.045.011-52.636zM353.798 104.777c6.769.128 13.419.075 20.027.472 3.669.214 7.241 1.394 10.18 3.775 4.355 3.529 5.384 8.303 4.741 13.613-.815 6.747-5.889 10.694-11.95 11.777-3.389.601-6.865.783-10.308 1.009-2.253.15-4.516.032-6.897.032v22.172h-5.814c.021-17.517.021-35.044.021-52.85zm5.836 24.778c.161.054.289.14.407.14 4.741-.108 9.526.075 14.224-.408 7.562-.783 9.504-6.801 7.723-12.808-1.073-3.625-4.376-5.341-8.249-5.642-4.258-.332-8.56-.225-12.829-.311-.408-.011-.826.043-1.276.064v18.965zM66 182.033c0-.865.169-1.642.507-2.333.337-.696.812-1.228 1.423-1.598.612-.375 1.314-.563 2.108-.563 1.174 0 2.126.384 2.855 1.15.735.767 1.132 1.783 1.19 3.05l.008.465c0 .87-.166 1.647-.498 2.332a3.655 3.655 0 0 1-1.416 1.59c-.611.376-1.319.563-2.123.563-1.228 0-2.212-.413-2.952-1.239-.735-.832-1.102-1.939-1.102-3.32v-.097zm1.954.171c0 .908.186 1.62.556 2.136.37.512.884.767 1.544.767s1.171-.261 1.536-.783c.37-.522.555-1.286.555-2.291 0-.892-.19-1.599-.571-2.121-.375-.522-.888-.783-1.536-.783-.638 0-1.145.259-1.52.775-.376.511-.564 1.278-.564 2.3zM77.558 177.702l.056 1.02c.644-.789 1.488-1.183 2.534-1.183 1.812 0 2.735 1.052 2.767 3.156v5.831H80.96v-5.717c0-.56-.12-.973-.362-1.239-.236-.272-.624-.408-1.166-.408-.788 0-1.375.362-1.761 1.085v6.279h-1.955v-8.824h1.842zM87.363 175.558v2.144h1.536v1.468h-1.536v4.926c0 .337.064.582.193.734.134.147.37.22.708.22.225 0 .453-.027.683-.082v1.534a4.753 4.753 0 0 1-1.287.187c-1.501 0-2.252-.84-2.252-2.52v-4.999h-1.431v-1.468h1.431v-2.144h1.955zM95.599 186.526c-.086-.169-.16-.443-.225-.824-.622.658-1.384.987-2.284.987-.874 0-1.588-.253-2.14-.758a2.442 2.442 0 0 1-.828-1.876c0-.94.343-1.661 1.03-2.161.69-.506 1.677-.758 2.959-.758h1.198v-.579c0-.457-.126-.821-.377-1.093-.253-.277-.636-.416-1.15-.416-.446 0-.81.114-1.095.342a1.043 1.043 0 0 0-.426.857h-1.954c0-.484.158-.935.474-1.354.316-.424.745-.756 1.287-.995a4.512 4.512 0 0 1 1.826-.359c1.019 0 1.831.261 2.437.783.606.517.917 1.245.933 2.186v3.979c0 .794.11 1.427.33 1.9v.139h-1.995zm-2.148-1.427a2.17 2.17 0 0 0 1.086-.286c.343-.19.6-.445.772-.766v-1.664h-1.053c-.724 0-1.268.128-1.633.384-.365.255-.547.617-.547 1.084 0 .381.123.685.37.914.252.222.587.334 1.005.334zM103.867 179.513a4.708 4.708 0 0 0-.796-.065c-.895 0-1.499.347-1.81 1.043v6.035h-1.954v-8.824h1.866l.048.987c.472-.766 1.126-1.15 1.963-1.15.279 0 .509.038.692.114l-.009 1.86zM107.181 186.526h-1.954v-8.824h1.954v8.824zm-2.075-11.115c0-.305.094-.557.282-.759.193-.201.466-.301.82-.301.354 0 .627.1.82.301.193.202.29.454.29.759 0 .299-.097.549-.29.75-.193.196-.466.294-.82.294-.354 0-.627-.098-.82-.294a1.056 1.056 0 0 1-.282-.75zM108.951 182.033c0-.865.169-1.642.507-2.333.337-.696.812-1.228 1.423-1.598.611-.375 1.314-.563 2.107-.563 1.175 0 2.127.384 2.856 1.15.734.767 1.131 1.783 1.19 3.05l.008.465c0 .87-.166 1.647-.498 2.332a3.66 3.66 0 0 1-1.416 1.59c-.611.376-1.319.563-2.123.563-1.228 0-2.212-.413-2.952-1.239-.735-.832-1.102-1.939-1.102-3.32v-.097zm1.954.171c0 .908.185 1.62.555 2.136.37.512.885.767 1.545.767.659 0 1.171-.261 1.536-.783.37-.522.555-1.286.555-2.291 0-.892-.191-1.599-.571-2.121-.376-.522-.888-.783-1.537-.783-.638 0-1.144.259-1.52.775-.375.511-.563 1.278-.563 2.3zM124.724 178.665c.638-.751 1.445-1.126 2.421-1.126 1.855 0 2.796 1.074 2.823 3.221v5.766h-1.955v-5.692c0-.609-.131-1.039-.394-1.289-.257-.255-.638-.383-1.142-.383-.783 0-1.367.353-1.753 1.06v6.304h-1.955V174h1.955v4.665zM137.15 186.526c-.085-.169-.161-.443-.225-.824-.622.658-1.383.987-2.284.987-.874 0-1.587-.253-2.14-.758a2.443 2.443 0 0 1-.828-1.876c0-.94.343-1.661 1.029-2.161.692-.506 1.679-.758 2.96-.758h1.199v-.579c0-.457-.126-.821-.378-1.093-.252-.277-.636-.416-1.15-.416-.446 0-.81.114-1.094.342a1.041 1.041 0 0 0-.427.857h-1.954c0-.484.158-.935.474-1.354.317-.424.746-.756 1.287-.995a4.515 4.515 0 0 1 1.826-.359c1.019 0 1.831.261 2.437.783.606.517.917 1.245.933 2.186v3.979c0 .794.11 1.427.33 1.9v.139h-1.995zm-2.147-1.427c.386 0 .748-.095 1.086-.286.343-.19.6-.445.772-.766v-1.664h-1.054c-.724 0-1.268.128-1.633.384-.364.255-.547.617-.547 1.084 0 .381.124.685.37.914.252.222.588.334 1.006.334zM145.419 179.513a4.728 4.728 0 0 0-.797-.065c-.895 0-1.498.347-1.809 1.043v6.035h-1.955v-8.824h1.866l.049.987c.471-.766 1.126-1.15 1.962-1.15.279 0 .509.038.692.114l-.008 1.86zM148.491 177.702l.057.922c.611-.723 1.447-1.085 2.509-1.085 1.164 0 1.96.451 2.389 1.354.633-.903 1.523-1.354 2.67-1.354.96 0 1.673.269 2.14.808.472.538.713 1.332.724 2.381v5.798h-1.955v-5.741c0-.56-.121-.971-.362-1.231-.241-.261-.641-.392-1.198-.392-.445 0-.81.122-1.094.367a1.901 1.901 0 0 0-.587.946l.008 6.051h-1.955v-5.806c-.027-1.039-.549-1.558-1.568-1.558-.783 0-1.338.324-1.665.971v6.393h-1.955v-8.824h1.842zM169.645 179.513a4.716 4.716 0 0 0-.796-.065c-.896 0-1.499.347-1.81 1.043v6.035h-1.955v-8.824h1.866l.049.987c.472-.766 1.126-1.15 1.962-1.15.279 0 .51.038.692.114l-.008 1.86zM174.551 186.689c-1.238 0-2.244-.394-3.016-1.182-.767-.794-1.15-1.849-1.15-3.164v-.245c0-.881.166-1.666.499-2.357.337-.696.809-1.237 1.415-1.623a3.695 3.695 0 0 1 2.027-.579c1.185 0 2.099.384 2.743 1.15.649.767.973 1.851.973 3.254v.799h-5.687c.059.729.298 1.305.716 1.729.424.424.955.636 1.593.636.895 0 1.625-.367 2.188-1.101l1.053 1.019a3.555 3.555 0 0 1-1.399 1.232c-.579.288-1.231.432-1.955.432zm-.233-7.56c-.536 0-.971.191-1.303.571-.327.381-.536.911-.627 1.591h3.724v-.147c-.043-.664-.218-1.164-.523-1.501-.306-.342-.729-.514-1.271-.514zM179.2 182.049c0-1.359.311-2.449.933-3.27.622-.827 1.456-1.24 2.502-1.24.922 0 1.667.326 2.236.979V174h1.954v12.526h-1.769l-.097-.913c-.584.717-1.364 1.076-2.34 1.076-1.019 0-1.845-.416-2.478-1.248-.627-.831-.941-1.962-.941-3.392zm1.955.171c0 .897.169 1.599.506 2.104.344.5.829.75 1.456.75.799 0 1.384-.361 1.754-1.084v-3.768c-.36-.707-.939-1.06-1.738-1.06-.632 0-1.12.256-1.463.767-.344.505-.515 1.269-.515 2.291zM194.137 185.662c-.574.685-1.389 1.027-2.446 1.027-.943 0-1.659-.28-2.147-.84-.483-.56-.724-1.37-.724-2.43v-5.717h1.954v5.692c0 1.12.459 1.68 1.376 1.68.949 0 1.59-.345 1.922-1.035v-6.337h1.955v8.824h-1.842l-.048-.864zM201.593 185.107c.488 0 .892-.144 1.214-.432.322-.288.493-.644.515-1.068h1.842a2.97 2.97 0 0 1-.507 1.541 3.342 3.342 0 0 1-1.287 1.125 3.793 3.793 0 0 1-1.753.416c-1.217 0-2.183-.4-2.896-1.199-.713-.799-1.07-1.903-1.07-3.311v-.203c0-1.343.354-2.417 1.062-3.222.708-.81 1.673-1.215 2.896-1.215 1.035 0 1.876.307 2.525.922.654.609.998 1.411 1.03 2.405h-1.842c-.022-.505-.193-.921-.515-1.247-.316-.326-.721-.49-1.214-.49-.633 0-1.121.234-1.464.702-.343.462-.518 1.166-.523 2.112v.318c0 .957.169 1.672.507 2.145.343.467.836.701 1.48.701zM209.643 175.558v2.144h1.536v1.468h-1.536v4.926c0 .337.064.582.193.734.134.147.37.22.708.22.225 0 .453-.027.683-.082v1.534a4.75 4.75 0 0 1-1.286.187c-1.502 0-2.253-.84-2.253-2.52v-4.999h-1.431v-1.468h1.431v-2.144h1.955zM214.758 186.526h-1.954v-8.824h1.954v8.824zm-2.075-11.115c0-.305.094-.557.282-.759.193-.201.466-.301.82-.301.354 0 .628.1.821.301.193.202.289.454.289.759 0 .299-.096.549-.289.75-.193.196-.467.294-.821.294-.354 0-.627-.098-.82-.294a1.056 1.056 0 0 1-.282-.75zM216.528 182.033c0-.865.169-1.642.507-2.333.337-.696.812-1.228 1.423-1.598.612-.375 1.314-.563 2.108-.563 1.174 0 2.126.384 2.855 1.15.735.767 1.131 1.783 1.19 3.05l.008.465c0 .87-.166 1.647-.498 2.332a3.653 3.653 0 0 1-1.416 1.59c-.611.376-1.319.563-2.123.563-1.228 0-2.212-.413-2.952-1.239-.735-.832-1.102-1.939-1.102-3.32v-.097zm1.954.171c0 .908.185 1.62.555 2.136.37.512.885.767 1.545.767.659 0 1.171-.261 1.536-.783.37-.522.555-1.286.555-2.291 0-.892-.19-1.599-.571-2.121-.375-.522-.888-.783-1.536-.783-.638 0-1.145.259-1.521.775-.375.511-.563 1.278-.563 2.3zM228.086 177.702l.056 1.02c.644-.789 1.488-1.183 2.534-1.183 1.812 0 2.735 1.052 2.767 3.156v5.831h-1.955v-5.717c0-.56-.12-.973-.362-1.239-.236-.272-.624-.408-1.166-.408-.788 0-1.375.362-1.761 1.085v6.279h-1.955v-8.824h1.842zM240.04 182.049c0-1.359.311-2.449.933-3.27.622-.827 1.455-1.24 2.501-1.24.922 0 1.668.326 2.236.979V174h1.955v12.526h-1.77l-.096-.913c-.585.717-1.365 1.076-2.341 1.076-1.019 0-1.845-.416-2.477-1.248-.628-.831-.941-1.962-.941-3.392zm1.954.171c0 .897.169 1.599.507 2.104.343.5.828.75 1.456.75.799 0 1.383-.361 1.753-1.084v-3.768c-.359-.707-.938-1.06-1.737-1.06-.633 0-1.121.256-1.464.767-.343.505-.515 1.269-.515 2.291zM251.783 186.526h-1.955v-8.824h1.955v8.824zm-2.075-11.115c0-.305.093-.557.281-.759.193-.201.467-.301.82-.301.354 0 .628.1.821.301.193.202.289.454.289.759 0 .299-.096.549-.289.75-.193.196-.467.294-.821.294-.353 0-.627-.098-.82-.294a1.055 1.055 0 0 1-.281-.75zM258.796 184.128c0-.353-.144-.622-.434-.807-.284-.185-.759-.348-1.424-.489-.665-.142-1.22-.321-1.665-.538-.975-.479-1.463-1.172-1.463-2.08 0-.761.316-1.397.949-1.908.632-.511 1.437-.767 2.413-.767 1.04 0 1.879.261 2.517.783.644.522.965 1.199.965 2.031H258.7c0-.381-.14-.696-.418-.946-.279-.256-.649-.384-1.11-.384-.429 0-.781.101-1.054.302a.958.958 0 0 0-.402.808c0 .304.126.54.378.709.252.169.761.34 1.528.514.767.168 1.367.372 1.802.611.439.234.764.517.973.848.214.332.322.734.322 1.207 0 .794-.325 1.438-.974 1.933-.648.489-1.498.734-2.549.734-.713 0-1.349-.13-1.906-.391-.558-.261-.992-.62-1.303-1.077a2.57 2.57 0 0 1-.467-1.476h1.898c.027.468.201.829.523 1.085.322.25.748.375 1.279.375.515 0 .906-.098 1.174-.294a.936.936 0 0 0 .402-.783zM264.877 175.558v2.144h1.536v1.468h-1.536v4.926c0 .337.064.582.193.734.134.147.37.22.708.22.225 0 .453-.027.684-.082v1.534a4.758 4.758 0 0 1-1.287.187c-1.502 0-2.252-.84-2.252-2.52v-4.999h-1.432v-1.468h1.432v-2.144h1.954zM272.47 179.513a4.725 4.725 0 0 0-.796-.065c-.896 0-1.499.347-1.81 1.043v6.035h-1.955v-8.824h1.866l.049.987c.471-.766 1.126-1.15 1.962-1.15.279 0 .51.038.692.114l-.008 1.86zM275.784 186.526h-1.955v-8.824h1.955v8.824zm-2.075-11.115c0-.305.093-.557.281-.759.193-.201.467-.301.82-.301.354 0 .628.1.821.301.193.202.289.454.289.759 0 .299-.096.549-.289.75-.193.196-.467.294-.821.294-.353 0-.627-.098-.82-.294a1.055 1.055 0 0 1-.281-.75zM285.556 182.204c0 1.37-.303 2.46-.909 3.27-.6.81-1.429 1.215-2.485 1.215-1.019 0-1.812-.372-2.381-1.117l-.096.954h-1.77V174h1.955v4.55c.563-.674 1.321-1.011 2.276-1.011 1.062 0 1.895.4 2.501 1.199.606.799.909 1.916.909 3.352v.114zm-1.954-.171c0-.957-.167-1.675-.499-2.153-.332-.479-.815-.718-1.448-.718-.847 0-1.442.375-1.785 1.125v3.638c.348.766.949 1.149 1.801 1.149.612 0 1.083-.231 1.416-.693.332-.462.504-1.16.515-2.096v-.252zM292.473 185.662c-.573.685-1.388 1.027-2.445 1.027-.944 0-1.659-.28-2.147-.84-.483-.56-.724-1.37-.724-2.43v-5.717h1.954v5.692c0 1.12.459 1.68 1.376 1.68.949 0 1.59-.345 1.922-1.035v-6.337h1.954v8.824h-1.841l-.049-.864zM298.803 175.558v2.144h1.537v1.468h-1.537v4.926c0 .337.065.582.193.734.134.147.37.22.708.22.225 0 .453-.027.684-.082v1.534a4.752 4.752 0 0 1-1.287.187c-1.501 0-2.252-.84-2.252-2.52v-4.999h-1.432v-1.468h1.432v-2.144h1.954zM303.919 186.526h-1.955v-8.824h1.955v8.824zm-2.075-11.115c0-.305.094-.557.281-.759.193-.201.467-.301.821-.301.353 0 .627.1.82.301.193.202.29.454.29.759 0 .299-.097.549-.29.75-.193.196-.467.294-.82.294-.354 0-.628-.098-.821-.294a1.06 1.06 0 0 1-.281-.75zM305.688 182.033c0-.865.169-1.642.507-2.333.338-.696.812-1.228 1.424-1.598.611-.375 1.313-.563 2.107-.563 1.174 0 2.126.384 2.855 1.15.735.767 1.132 1.783 1.191 3.05l.008.465c0 .87-.166 1.647-.499 2.332a3.657 3.657 0 0 1-1.415 1.59c-.612.376-1.32.563-2.124.563-1.228 0-2.212-.413-2.952-1.239-.734-.832-1.102-1.939-1.102-3.32v-.097zm1.955.171c0 .908.185 1.62.555 2.136.37.512.885.767 1.544.767.66 0 1.172-.261 1.536-.783.37-.522.555-1.286.555-2.291 0-.892-.19-1.599-.571-2.121-.375-.522-.887-.783-1.536-.783-.638 0-1.145.259-1.52.775-.375.511-.563 1.278-.563 2.3zM317.246 177.702l.057 1.02c.643-.789 1.488-1.183 2.533-1.183 1.813 0 2.735 1.052 2.767 3.156v5.831h-1.954v-5.717c0-.56-.121-.973-.362-1.239-.236-.272-.625-.408-1.166-.408-.789 0-1.376.362-1.762 1.085v6.279h-1.954v-8.824h1.841zM336.325 182.204c0 1.364-.306 2.455-.917 3.27-.611.81-1.432 1.215-2.461 1.215-.955 0-1.719-.318-2.293-.954v4.183H328.7v-12.216h1.802l.08.897c.574-.706 1.354-1.06 2.341-1.06 1.061 0 1.893.403 2.493 1.207.606.799.909 1.911.909 3.336v.122zm-1.947-.171c0-.881-.174-1.58-.522-2.096-.343-.517-.837-.775-1.48-.775-.799 0-1.373.334-1.722 1.003v3.915c.354.685.933 1.027 1.738 1.027.622 0 1.107-.253 1.456-.758.354-.511.53-1.283.53-2.316zM342.542 179.513a4.708 4.708 0 0 0-.796-.065c-.895 0-1.499.347-1.81 1.043v6.035h-1.954v-8.824h1.866l.048.987c.472-.766 1.126-1.15 1.963-1.15.279 0 .509.038.691.114l-.008 1.86zM343.121 182.033c0-.865.169-1.642.507-2.333.338-.696.813-1.228 1.424-1.598.611-.375 1.314-.563 2.107-.563 1.174 0 2.126.384 2.856 1.15.734.767 1.131 1.783 1.19 3.05l.008.465c0 .87-.166 1.647-.499 2.332a3.657 3.657 0 0 1-1.415 1.59c-.612.376-1.319.563-2.124.563-1.228 0-2.212-.413-2.952-1.239-.734-.832-1.102-1.939-1.102-3.32v-.097zm1.955.171c0 .908.185 1.62.555 2.136.37.512.885.767 1.544.767.66 0 1.172-.261 1.537-.783.369-.522.554-1.286.554-2.291 0-.892-.19-1.599-.571-2.121-.375-.522-.887-.783-1.536-.783-.638 0-1.145.259-1.52.775-.375.511-.563 1.278-.563 2.3zM352.524 182.049c0-1.37.316-2.463.949-3.278.638-.821 1.483-1.232 2.534-1.232.992 0 1.772.351 2.34 1.052l.089-.889h1.761v8.555c0 1.158-.356 2.071-1.07 2.74-.707.669-1.664 1.003-2.871 1.003a4.566 4.566 0 0 1-1.874-.408c-.606-.266-1.067-.617-1.383-1.052l.925-1.19c.6.723 1.34 1.084 2.219 1.084.649 0 1.161-.179 1.537-.538.375-.353.563-.875.563-1.566v-.595c-.563.636-1.314.954-2.252.954-1.019 0-1.853-.41-2.502-1.231-.643-.821-.965-1.957-.965-3.409zm1.946.171c0 .886.177 1.585.531 2.096.36.506.856.758 1.488.758.789 0 1.373-.342 1.754-1.027v-3.882c-.37-.669-.949-1.003-1.738-1.003-.643 0-1.144.258-1.504.775-.354.516-.531 1.277-.531 2.283zM366.769 179.513a4.728 4.728 0 0 0-.797-.065c-.895 0-1.498.347-1.809 1.043v6.035h-1.955v-8.824h1.866l.048.987c.472-.766 1.126-1.15 1.963-1.15.279 0 .509.038.692.114l-.008 1.86zM372.962 186.526c-.086-.169-.161-.443-.225-.824a3.024 3.024 0 0 1-2.285.987c-.874 0-1.587-.253-2.139-.758a2.444 2.444 0 0 1-.829-1.876c0-.94.344-1.661 1.03-2.161.692-.506 1.678-.758 2.96-.758h1.198v-.579c0-.457-.126-.821-.378-1.093-.252-.277-.635-.416-1.15-.416-.724.128-.81.114-1.094.342a1.043 1.043 0 0 0-.426.857h-1.955c0-.484.159-.935.475-1.354.316-.424.745-.756 1.287-.995a4.511 4.511 0 0 1 1.826-.359c1.018 0 1.831.261 2.437.783.606.517.917 1.245.933 2.186v3.979c0 .794.11 1.427.33 1.9v.139h-1.995zm-2.148-1.427c.386 0 .748-.095 1.086-.286a1.88 1.88 0 0 0 .772-.766v-1.664h-1.053c-.724 0-1.269.128-1.633.384-.365.255-.547.617-.547 1.084 0 .381.123.685.37.914.252.222.587.334 1.005.334zM378.512 177.702l.056.922c.611-.723 1.448-1.085 2.509-1.085 1.164 0 1.96.451 2.389 1.354.633-.903 1.523-1.354 2.671-1.354.959 0 1.673.269 2.139.808.472.538.713 1.332.724 2.381v5.798h-1.955v-5.741c0-.56-.12-.971-.361-1.231-.242-.261-.641-.392-1.199-.392-.445 0-.81.122-1.094.367a1.908 1.908 0 0 0-.587.946l.008 6.051h-1.954v-5.806c-.027-1.039-.55-1.558-1.569-1.558-.783 0-1.338.324-1.665.971v6.393h-1.954v-8.824h1.842z" fill="#065a99"/></svg>
